/* XPM */
static char *bea3cce58cf3443eb19c86dc0e6a1bbf[] = {
/* columns rows colors chars-per-pixel */
"16 16 3 1 ",
"  c black",
". c #FFF200",
"X c None",
/* pixels */
"XXXXX      XXXXX",
"XXXX ...... XXXX",
"XX  ........  XX",
"XX .......... XX",
"X ..... ...... X",
" ...... ...... X",
" ...... ...   . ",
" ......     ... ",
" ......  ...... ",
" .............. ",
" ............. X",
"X ............ X",
"XX .......... XX",
"XX  ........  XX",
"XXXX  ....  XXXX",
"XXXXXX    XXXXXX"
};
